<mxfile host="app.diagrams.net" modified="2023-03-19T20:28:14.067Z" agent="5.0 (Windows NT 10.0; Win64; x64) AppleWebKit/537.36 (KHTML, like Gecko) Chrome/111.0.0.0 Safari/537.36" etag="DJ9CGb8Gu_B0uXFIt6PS" version="21.0.8" type="github">
  <diagram name="Page-1" id="pEi6Y9E0P4sgi3Jd631e">
    <mxGraphModel dx="2610" dy="1982" grid="1" gridSize="10" guides="1" tooltips="1" connect="1" arrows="1" fold="1" page="1" pageScale="1" pageWidth="850" pageHeight="1100" math="0" shadow="0">
      <root>
        <mxCell id="0" />
        <mxCell id="1" parent="0" />
        <mxCell id="v0iuq0MtNg9-pNX7fncu-3" value="Entity" style="swimlane;fontStyle=1;align=center;verticalAlign=top;childLayout=stackLayout;horizontal=1;startSize=26;horizontalStack=0;resizeParent=1;resizeParentMax=0;resizeLast=0;collapsible=1;marginBottom=0;whiteSpace=wrap;html=1;" parent="1" vertex="1">
          <mxGeometry x="350" y="290" width="199" height="170" as="geometry" />
        </mxCell>
        <mxCell id="v0iuq0MtNg9-pNX7fncu-4" value="#id: string&lt;br&gt;&lt;span style=&quot;color: rgb(0, 0, 0); font-family: Helvetica; font-size: 12px; font-style: normal; font-variant-ligatures: normal; font-variant-caps: normal; font-weight: 400; letter-spacing: normal; orphans: 2; text-align: left; text-indent: 0px; text-transform: none; widows: 2; word-spacing: 0px; -webkit-text-stroke-width: 0px; background-color: rgb(251, 251, 251); text-decoration-thickness: initial; text-decoration-style: initial; text-decoration-color: initial; float: none; display: inline !important;&quot;&gt;#name: string&lt;/span&gt;&lt;br&gt;" style="text;strokeColor=none;fillColor=none;align=left;verticalAlign=top;spacingLeft=4;spacingRight=4;overflow=hidden;rotatable=0;points=[[0,0.5],[1,0.5]];portConstraint=eastwest;whiteSpace=wrap;html=1;" parent="v0iuq0MtNg9-pNX7fncu-3" vertex="1">
          <mxGeometry y="26" width="199" height="44" as="geometry" />
        </mxCell>
        <mxCell id="v0iuq0MtNg9-pNX7fncu-5" value="" style="line;strokeWidth=1;fillColor=none;align=left;verticalAlign=middle;spacingTop=-1;spacingLeft=3;spacingRight=3;rotatable=0;labelPosition=right;points=[];portConstraint=eastwest;strokeColor=inherit;" parent="v0iuq0MtNg9-pNX7fncu-3" vertex="1">
          <mxGeometry y="70" width="199" height="8" as="geometry" />
        </mxCell>
        <mxCell id="v0iuq0MtNg9-pNX7fncu-6" value="+ getNextOrder(type): Order*&lt;br&gt;+getNumOrders(): int&lt;br&gt;+addOrder(in order:Order)&lt;br&gt;+print()&lt;br&gt;+equals(in idParam: string): bool" style="text;strokeColor=none;fillColor=none;align=left;verticalAlign=top;spacingLeft=4;spacingRight=4;overflow=hidden;rotatable=0;points=[[0,0.5],[1,0.5]];portConstraint=eastwest;whiteSpace=wrap;html=1;" parent="v0iuq0MtNg9-pNX7fncu-3" vertex="1">
          <mxGeometry y="78" width="199" height="92" as="geometry" />
        </mxCell>
        <mxCell id="v0iuq0MtNg9-pNX7fncu-8" value="Location" style="swimlane;fontStyle=1;align=center;verticalAlign=top;childLayout=stackLayout;horizontal=1;startSize=26;horizontalStack=0;resizeParent=1;resizeParentMax=0;resizeLast=0;collapsible=1;marginBottom=0;whiteSpace=wrap;html=1;" parent="1" vertex="1">
          <mxGeometry x="160" y="500" width="180" height="140" as="geometry" />
        </mxCell>
        <mxCell id="v0iuq0MtNg9-pNX7fncu-9" value="+ x: int&lt;br&gt;+ y: int" style="text;strokeColor=none;fillColor=none;align=left;verticalAlign=top;spacingLeft=4;spacingRight=4;overflow=hidden;rotatable=0;points=[[0,0.5],[1,0.5]];portConstraint=eastwest;whiteSpace=wrap;html=1;" parent="v0iuq0MtNg9-pNX7fncu-8" vertex="1">
          <mxGeometry y="26" width="180" height="44" as="geometry" />
        </mxCell>
        <mxCell id="v0iuq0MtNg9-pNX7fncu-10" value="" style="line;strokeWidth=1;fillColor=none;align=left;verticalAlign=middle;spacingTop=-1;spacingLeft=3;spacingRight=3;rotatable=0;labelPosition=right;points=[];portConstraint=eastwest;strokeColor=inherit;" parent="v0iuq0MtNg9-pNX7fncu-8" vertex="1">
          <mxGeometry y="70" width="180" height="8" as="geometry" />
        </mxCell>
        <mxCell id="v0iuq0MtNg9-pNX7fncu-11" value="+ print()&lt;br&gt;+ getDistance(in l:Location): int&lt;br style=&quot;border-color: var(--border-color);&quot;&gt;- street(in s:int): string&lt;br style=&quot;border-color: var(--border-color);&quot;&gt;" style="text;strokeColor=none;fillColor=none;align=left;verticalAlign=top;spacingLeft=4;spacingRight=4;overflow=hidden;rotatable=0;points=[[0,0.5],[1,0.5]];portConstraint=eastwest;whiteSpace=wrap;html=1;" parent="v0iuq0MtNg9-pNX7fncu-8" vertex="1">
          <mxGeometry y="78" width="180" height="62" as="geometry" />
        </mxCell>
        <mxCell id="XZEwy1JKMiO5OnShlTLL-38" style="edgeStyle=orthogonalEdgeStyle;rounded=0;orthogonalLoop=1;jettySize=auto;html=1;entryX=1.004;entryY=0.057;entryDx=0;entryDy=0;entryPerimeter=0;endArrow=block;endFill=0;strokeWidth=1;" edge="1" parent="1" source="v0iuq0MtNg9-pNX7fncu-12" target="v0iuq0MtNg9-pNX7fncu-6">
          <mxGeometry relative="1" as="geometry" />
        </mxCell>
        <mxCell id="v0iuq0MtNg9-pNX7fncu-12" value="Franchise" style="swimlane;fontStyle=1;align=center;verticalAlign=top;childLayout=stackLayout;horizontal=1;startSize=26;horizontalStack=0;resizeParent=1;resizeParentMax=0;resizeLast=0;collapsible=1;marginBottom=0;whiteSpace=wrap;html=1;" parent="1" vertex="1">
          <mxGeometry x="610" y="150" width="170" height="150" as="geometry" />
        </mxCell>
        <mxCell id="v0iuq0MtNg9-pNX7fncu-13" value="&lt;u&gt;- code: char&lt;br&gt;- nextId: int&lt;br&gt;- menu: string[3]&lt;/u&gt;" style="text;strokeColor=none;fillColor=none;align=left;verticalAlign=top;spacingLeft=4;spacingRight=4;overflow=hidden;rotatable=0;points=[[0,0.5],[1,0.5]];portConstraint=eastwest;whiteSpace=wrap;html=1;" parent="v0iuq0MtNg9-pNX7fncu-12" vertex="1">
          <mxGeometry y="26" width="170" height="54" as="geometry" />
        </mxCell>
        <mxCell id="v0iuq0MtNg9-pNX7fncu-14" value="" style="line;strokeWidth=1;fillColor=none;align=left;verticalAlign=middle;spacingTop=-1;spacingLeft=3;spacingRight=3;rotatable=0;labelPosition=right;points=[];portConstraint=eastwest;strokeColor=inherit;" parent="v0iuq0MtNg9-pNX7fncu-12" vertex="1">
          <mxGeometry y="80" width="170" height="8" as="geometry" />
        </mxCell>
        <mxCell id="v0iuq0MtNg9-pNX7fncu-15" value="+ print()&lt;br&gt;&lt;u&gt;+ printMenu()&lt;br&gt;+getMenu(in index: int): string&lt;/u&gt;" style="text;strokeColor=none;fillColor=none;align=left;verticalAlign=top;spacingLeft=4;spacingRight=4;overflow=hidden;rotatable=0;points=[[0,0.5],[1,0.5]];portConstraint=eastwest;whiteSpace=wrap;html=1;" parent="v0iuq0MtNg9-pNX7fncu-12" vertex="1">
          <mxGeometry y="88" width="170" height="62" as="geometry" />
        </mxCell>
        <mxCell id="v0iuq0MtNg9-pNX7fncu-22" value="Order" style="swimlane;fontStyle=1;align=center;verticalAlign=top;childLayout=stackLayout;horizontal=1;startSize=26;horizontalStack=0;resizeParent=1;resizeParentMax=0;resizeLast=0;collapsible=1;marginBottom=0;whiteSpace=wrap;html=1;" parent="1" vertex="1">
          <mxGeometry x="560" y="530" width="180" height="110" as="geometry" />
        </mxCell>
        <mxCell id="v0iuq0MtNg9-pNX7fncu-23" value="- customerName: string&lt;br&gt;- menuItem: int" style="text;strokeColor=none;fillColor=none;align=left;verticalAlign=top;spacingLeft=4;spacingRight=4;overflow=hidden;rotatable=0;points=[[0,0.5],[1,0.5]];portConstraint=eastwest;whiteSpace=wrap;html=1;" parent="v0iuq0MtNg9-pNX7fncu-22" vertex="1">
          <mxGeometry y="26" width="180" height="44" as="geometry" />
        </mxCell>
        <mxCell id="v0iuq0MtNg9-pNX7fncu-24" value="" style="line;strokeWidth=1;fillColor=none;align=left;verticalAlign=middle;spacingTop=-1;spacingLeft=3;spacingRight=3;rotatable=0;labelPosition=right;points=[];portConstraint=eastwest;strokeColor=inherit;" parent="v0iuq0MtNg9-pNX7fncu-22" vertex="1">
          <mxGeometry y="70" width="180" height="8" as="geometry" />
        </mxCell>
        <mxCell id="v0iuq0MtNg9-pNX7fncu-25" value="+ print()&lt;br&gt;" style="text;strokeColor=none;fillColor=none;align=left;verticalAlign=top;spacingLeft=4;spacingRight=4;overflow=hidden;rotatable=0;points=[[0,0.5],[1,0.5]];portConstraint=eastwest;whiteSpace=wrap;html=1;" parent="v0iuq0MtNg9-pNX7fncu-22" vertex="1">
          <mxGeometry y="78" width="180" height="32" as="geometry" />
        </mxCell>
        <mxCell id="XZEwy1JKMiO5OnShlTLL-22" style="edgeStyle=orthogonalEdgeStyle;rounded=0;orthogonalLoop=1;jettySize=auto;html=1;entryX=0.007;entryY=0.039;entryDx=0;entryDy=0;entryPerimeter=0;endArrow=block;endFill=0;" edge="1" parent="1" source="XZEwy1JKMiO5OnShlTLL-1" target="v0iuq0MtNg9-pNX7fncu-6">
          <mxGeometry relative="1" as="geometry" />
        </mxCell>
        <mxCell id="XZEwy1JKMiO5OnShlTLL-1" value="Driver" style="swimlane;fontStyle=1;align=center;verticalAlign=top;childLayout=stackLayout;horizontal=1;startSize=26;horizontalStack=0;resizeParent=1;resizeParentMax=0;resizeLast=0;collapsible=1;marginBottom=0;whiteSpace=wrap;html=1;" vertex="1" parent="1">
          <mxGeometry x="-10" y="200" width="170" height="120" as="geometry" />
        </mxCell>
        <mxCell id="XZEwy1JKMiO5OnShlTLL-2" value="&lt;u&gt;- code: char&lt;br&gt;- nextId: int&lt;br&gt;&lt;/u&gt;" style="text;strokeColor=none;fillColor=none;align=left;verticalAlign=top;spacingLeft=4;spacingRight=4;overflow=hidden;rotatable=0;points=[[0,0.5],[1,0.5]];portConstraint=eastwest;whiteSpace=wrap;html=1;" vertex="1" parent="XZEwy1JKMiO5OnShlTLL-1">
          <mxGeometry y="26" width="170" height="44" as="geometry" />
        </mxCell>
        <mxCell id="XZEwy1JKMiO5OnShlTLL-3" value="" style="line;strokeWidth=1;fillColor=none;align=left;verticalAlign=middle;spacingTop=-1;spacingLeft=3;spacingRight=3;rotatable=0;labelPosition=right;points=[];portConstraint=eastwest;strokeColor=inherit;" vertex="1" parent="XZEwy1JKMiO5OnShlTLL-1">
          <mxGeometry y="70" width="170" height="8" as="geometry" />
        </mxCell>
        <mxCell id="XZEwy1JKMiO5OnShlTLL-4" value="+ print()&lt;br&gt;+ isFree(): bool" style="text;strokeColor=none;fillColor=none;align=left;verticalAlign=top;spacingLeft=4;spacingRight=4;overflow=hidden;rotatable=0;points=[[0,0.5],[1,0.5]];portConstraint=eastwest;whiteSpace=wrap;html=1;" vertex="1" parent="XZEwy1JKMiO5OnShlTLL-1">
          <mxGeometry y="78" width="170" height="42" as="geometry" />
        </mxCell>
        <mxCell id="XZEwy1JKMiO5OnShlTLL-33" style="edgeStyle=orthogonalEdgeStyle;rounded=0;orthogonalLoop=1;jettySize=auto;html=1;entryX=0.5;entryY=0;entryDx=0;entryDy=0;endArrow=open;endFill=0;" edge="1" parent="1" source="XZEwy1JKMiO5OnShlTLL-5" target="XZEwy1JKMiO5OnShlTLL-1">
          <mxGeometry relative="1" as="geometry" />
        </mxCell>
        <mxCell id="XZEwy1JKMiO5OnShlTLL-41" style="edgeStyle=orthogonalEdgeStyle;rounded=0;orthogonalLoop=1;jettySize=auto;html=1;endArrow=open;endFill=0;" edge="1" parent="1" source="XZEwy1JKMiO5OnShlTLL-5" target="v0iuq0MtNg9-pNX7fncu-13">
          <mxGeometry relative="1" as="geometry">
            <Array as="points">
              <mxPoint x="210" y="203" />
            </Array>
          </mxGeometry>
        </mxCell>
        <mxCell id="XZEwy1JKMiO5OnShlTLL-5" value="Pierres" style="swimlane;fontStyle=1;align=center;verticalAlign=top;childLayout=stackLayout;horizontal=1;startSize=30;horizontalStack=0;resizeParent=1;resizeParentMax=0;resizeLast=0;collapsible=1;marginBottom=0;whiteSpace=wrap;html=1;" vertex="1" parent="1">
          <mxGeometry x="-40" y="-30" width="460" height="150" as="geometry" />
        </mxCell>
        <mxCell id="XZEwy1JKMiO5OnShlTLL-7" value="" style="line;strokeWidth=1;fillColor=none;align=left;verticalAlign=middle;spacingTop=-1;spacingLeft=3;spacingRight=3;rotatable=0;labelPosition=right;points=[];portConstraint=eastwest;strokeColor=inherit;" vertex="1" parent="XZEwy1JKMiO5OnShlTLL-5">
          <mxGeometry y="30" width="460" height="8" as="geometry" />
        </mxCell>
        <mxCell id="XZEwy1JKMiO5OnShlTLL-8" value="+ addDriver(in name: string, in locationParam: Location)&lt;br&gt;+ addFranchise(in name: string, in locationParam: Location)&lt;br style=&quot;border-color: var(--border-color);&quot;&gt;+ takeOrder(in customerName: string, in menuItem: int, in locationParam: Location)&lt;br&gt;+ driverPickup(in franchiseId: string, in numOrders: int)&lt;br&gt;+ driverDeliver(in driverId: string, in numOrders: int)&lt;br&gt;+ printFranchises()&lt;br&gt;+ printDrivers()&lt;br style=&quot;border-color: var(--border-color);&quot;&gt;&lt;u&gt;&lt;br&gt;&lt;/u&gt;" style="text;strokeColor=none;fillColor=none;align=left;verticalAlign=top;spacingLeft=4;spacingRight=4;overflow=hidden;rotatable=0;points=[[0,0.5],[1,0.5]];portConstraint=eastwest;whiteSpace=wrap;html=1;" vertex="1" parent="XZEwy1JKMiO5OnShlTLL-5">
          <mxGeometry y="38" width="460" height="112" as="geometry" />
        </mxCell>
        <mxCell id="XZEwy1JKMiO5OnShlTLL-9" value="Controller" style="swimlane;fontStyle=1;align=center;verticalAlign=top;childLayout=stackLayout;horizontal=1;startSize=26;horizontalStack=0;resizeParent=1;resizeParentMax=0;resizeLast=0;collapsible=1;marginBottom=0;whiteSpace=wrap;html=1;" vertex="1" parent="1">
          <mxGeometry x="380" y="-200" width="210" height="120" as="geometry" />
        </mxCell>
        <mxCell id="XZEwy1JKMiO5OnShlTLL-11" value="" style="line;strokeWidth=1;fillColor=none;align=left;verticalAlign=middle;spacingTop=-1;spacingLeft=3;spacingRight=3;rotatable=0;labelPosition=right;points=[];portConstraint=eastwest;strokeColor=inherit;" vertex="1" parent="XZEwy1JKMiO5OnShlTLL-9">
          <mxGeometry y="26" width="210" height="8" as="geometry" />
        </mxCell>
        <mxCell id="XZEwy1JKMiO5OnShlTLL-12" value="+ launch()&lt;br&gt;- initPierres()&lt;br&gt;- takeOrder()&lt;br&gt;- driverPickup()&lt;br&gt;- driverDeliver()" style="text;strokeColor=none;fillColor=none;align=left;verticalAlign=top;spacingLeft=4;spacingRight=4;overflow=hidden;rotatable=0;points=[[0,0.5],[1,0.5]];portConstraint=eastwest;whiteSpace=wrap;html=1;" vertex="1" parent="XZEwy1JKMiO5OnShlTLL-9">
          <mxGeometry y="34" width="210" height="86" as="geometry" />
        </mxCell>
        <mxCell id="XZEwy1JKMiO5OnShlTLL-17" value="View" style="swimlane;fontStyle=1;align=center;verticalAlign=top;childLayout=stackLayout;horizontal=1;startSize=26;horizontalStack=0;resizeParent=1;resizeParentMax=0;resizeLast=0;collapsible=1;marginBottom=0;whiteSpace=wrap;html=1;" vertex="1" parent="1">
          <mxGeometry x="470" y="-10" width="410" height="110" as="geometry" />
        </mxCell>
        <mxCell id="XZEwy1JKMiO5OnShlTLL-18" value="" style="line;strokeWidth=1;fillColor=none;align=left;verticalAlign=middle;spacingTop=-1;spacingLeft=3;spacingRight=3;rotatable=0;labelPosition=right;points=[];portConstraint=eastwest;strokeColor=inherit;" vertex="1" parent="XZEwy1JKMiO5OnShlTLL-17">
          <mxGeometry y="26" width="410" height="8" as="geometry" />
        </mxCell>
        <mxCell id="XZEwy1JKMiO5OnShlTLL-19" value="- displayMenu(inout choice: int)&lt;br&gt;- getOrderInfo(inout name: string, inout menuItem: int, inout loc: Location)&lt;br&gt;- driverPickup(inout id: string, inout num: int)&lt;br&gt;- driverDeliver(inout id: string, inout num: int)" style="text;strokeColor=none;fillColor=none;align=left;verticalAlign=top;spacingLeft=4;spacingRight=4;overflow=hidden;rotatable=0;points=[[0,0.5],[1,0.5]];portConstraint=eastwest;whiteSpace=wrap;html=1;" vertex="1" parent="XZEwy1JKMiO5OnShlTLL-17">
          <mxGeometry y="34" width="410" height="76" as="geometry" />
        </mxCell>
        <mxCell id="XZEwy1JKMiO5OnShlTLL-28" style="edgeStyle=orthogonalEdgeStyle;rounded=0;orthogonalLoop=1;jettySize=auto;html=1;exitX=0;exitY=0.5;exitDx=0;exitDy=0;entryX=0.5;entryY=0;entryDx=0;entryDy=0;endArrow=open;endFill=0;" edge="1" parent="1" source="XZEwy1JKMiO5OnShlTLL-12" target="XZEwy1JKMiO5OnShlTLL-5">
          <mxGeometry relative="1" as="geometry" />
        </mxCell>
        <mxCell id="XZEwy1JKMiO5OnShlTLL-29" style="edgeStyle=orthogonalEdgeStyle;rounded=0;orthogonalLoop=1;jettySize=auto;html=1;exitX=1;exitY=0.5;exitDx=0;exitDy=0;entryX=0.5;entryY=0;entryDx=0;entryDy=0;endArrow=open;endFill=0;" edge="1" parent="1" source="XZEwy1JKMiO5OnShlTLL-12" target="XZEwy1JKMiO5OnShlTLL-17">
          <mxGeometry relative="1" as="geometry" />
        </mxCell>
        <mxCell id="XZEwy1JKMiO5OnShlTLL-39" style="edgeStyle=orthogonalEdgeStyle;rounded=0;orthogonalLoop=1;jettySize=auto;html=1;exitX=0;exitY=0.5;exitDx=0;exitDy=0;entryX=0.5;entryY=0;entryDx=0;entryDy=0;endArrow=open;endFill=0;" edge="1" parent="1" source="v0iuq0MtNg9-pNX7fncu-6" target="v0iuq0MtNg9-pNX7fncu-8">
          <mxGeometry relative="1" as="geometry" />
        </mxCell>
        <mxCell id="XZEwy1JKMiO5OnShlTLL-40" style="edgeStyle=orthogonalEdgeStyle;rounded=0;orthogonalLoop=1;jettySize=auto;html=1;entryX=0.5;entryY=0;entryDx=0;entryDy=0;endArrow=open;endFill=0;" edge="1" parent="1" source="v0iuq0MtNg9-pNX7fncu-6" target="v0iuq0MtNg9-pNX7fncu-22">
          <mxGeometry relative="1" as="geometry" />
        </mxCell>
        <mxCell id="XZEwy1JKMiO5OnShlTLL-43" value="1" style="text;html=1;strokeColor=none;fillColor=none;align=center;verticalAlign=middle;whiteSpace=wrap;rounded=0;fontSize=13;" vertex="1" parent="1">
          <mxGeometry x="200" y="-50" width="10" height="10" as="geometry" />
        </mxCell>
        <mxCell id="XZEwy1JKMiO5OnShlTLL-51" style="edgeStyle=orthogonalEdgeStyle;rounded=0;orthogonalLoop=1;jettySize=auto;html=1;entryX=1;entryY=0.5;entryDx=0;entryDy=0;endArrow=open;endFill=0;" edge="1" parent="1" source="v0iuq0MtNg9-pNX7fncu-23" target="v0iuq0MtNg9-pNX7fncu-9">
          <mxGeometry relative="1" as="geometry" />
        </mxCell>
        <mxCell id="XZEwy1JKMiO5OnShlTLL-52" value="1" style="text;html=1;strokeColor=none;fillColor=none;align=center;verticalAlign=middle;whiteSpace=wrap;rounded=0;fontSize=13;" vertex="1" parent="1">
          <mxGeometry x="660" y="-30" width="10" height="10" as="geometry" />
        </mxCell>
        <mxCell id="XZEwy1JKMiO5OnShlTLL-55" value="0.. *" style="text;html=1;strokeColor=none;fillColor=none;align=center;verticalAlign=middle;whiteSpace=wrap;rounded=0;fontSize=13;" vertex="1" parent="1">
          <mxGeometry x="570" y="190" width="30" height="10" as="geometry" />
        </mxCell>
        <mxCell id="XZEwy1JKMiO5OnShlTLL-57" value="0.. *" style="text;html=1;strokeColor=none;fillColor=none;align=center;verticalAlign=middle;whiteSpace=wrap;rounded=0;fontSize=13;" vertex="1" parent="1">
          <mxGeometry x="80" y="180" width="30" height="10" as="geometry" />
        </mxCell>
        <mxCell id="XZEwy1JKMiO5OnShlTLL-61" value="0.. *" style="text;html=1;strokeColor=none;fillColor=none;align=center;verticalAlign=middle;whiteSpace=wrap;rounded=0;fontSize=13;" vertex="1" parent="1">
          <mxGeometry x="610" y="510" width="30" height="10" as="geometry" />
        </mxCell>
        <mxCell id="XZEwy1JKMiO5OnShlTLL-62" value="1" style="text;html=1;strokeColor=none;fillColor=none;align=center;verticalAlign=middle;whiteSpace=wrap;rounded=0;fontSize=13;" vertex="1" parent="1">
          <mxGeometry x="260" y="480" width="10" height="10" as="geometry" />
        </mxCell>
        <mxCell id="XZEwy1JKMiO5OnShlTLL-64" value="1" style="text;html=1;strokeColor=none;fillColor=none;align=center;verticalAlign=middle;whiteSpace=wrap;rounded=0;fontSize=13;" vertex="1" parent="1">
          <mxGeometry x="350" y="560" width="10" height="10" as="geometry" />
        </mxCell>
      </root>
    </mxGraphModel>
  </diagram>
</mxfile>
